ffmpeg started on 2016-12-06 at 02:44:00
Report written to "Output/x264/results/ffmpeg/crowd_run_2160p50fast2500k.log"
Command line:
Tools/ffmpeg/ffmpeg -benchmark -y -i Input/y4m/crowd_run_2160p50.y4m -c:v libx264 -preset fast -b:v 2500k -an Output/x264/encoded/crowd_run_2160p50fast2500k.mkv
ffmpeg version N-82227-gdb23fde Copyright (c) 2000-2016 the FFmpeg developers
  built with gcc 5.4.0 (Ubuntu 5.4.0-6ubuntu1~16.04.2) 20160609
  configuration: --prefix=/home/jaroslav/ffmpeg_build --pkg-config-flags=--static --extra-cflags=-I/home/jaroslav/ffmpeg_build/include --extra-ldflags=-L/home/jaroslav/ffmpeg_build/lib --bindir=/home/jaroslav/bin --enable-gpl --enable-libass --enable-libfdk-aac --enable-libfreetype --enable-libmp3lame --enable-libopus --enable-libtheora --enable-libvorbis --enable-libvpx --enable-libx264 --enable-libx265 --enable-nvenc --enable-libmfx --enable-libxvid --enable-libgsm --enable-libopencore-amrnb --enable-version3 --enable-nonfree
  libavutil      55. 35.100 / 55. 35.100
  libavcodec     57. 66.101 / 57. 66.101
  libavformat    57. 57.100 / 57. 57.100
  libavdevice    57.  2.100 / 57.  2.100
  libavfilter     6. 66.100 /  6. 66.100
  libswscale      4.  3.100 /  4.  3.100
  libswresample   2.  4.100 /  2.  4.100
  libpostproc    54.  2.100 / 54.  2.100
Input #0, yuv4mpegpipe, from 'Input/y4m/crowd_run_2160p50.y4m':
  Duration: 00:00:10.00, start: 0.000000, bitrate: 4976642 kb/s
    Stream #0:0: Video: rawvideo (I420 / 0x30323449), yuv420p(progressive), 3840x2160, SAR 1:1 DAR 16:9, 50 fps, 50 tbr, 50 tbn, 50 tbc
[libx264 @ 0x39ee1c0] using SAR=1/1
[libx264 @ 0x39ee1c0] using cpu capabilities: MMX2 SSE2Fast SSSE3 SSE4.2 AVX FMA3 AVX2 LZCNT BMI2
[libx264 @ 0x39ee1c0] profile High, level 5.2
[libx264 @ 0x39ee1c0] 264 - core 148 - H.264/MPEG-4 AVC codec - Copyleft 2003-2016 - http://www.videolan.org/x264.html - options: cabac=1 ref=2 deblock=1:0:0 analyse=0x3:0x113 me=hex subme=6 psy=1 psy_rd=1.00:0.00 mixed_ref=1 me_range=16 chroma_me=1 trellis=1 8x8dct=1 cqm=0 deadzone=21,11 fast_pskip=1 chroma_qp_offset=-2 threads=6 lookahead_threads=1 sliced_threads=0 nr=0 decimate=1 interlaced=0 bluray_compat=0 constrained_intra=0 bframes=3 b_pyramid=2 b_adapt=1 b_bias=0 direct=1 weightb=1 open_gop=0 weightp=1 keyint=250 keyint_min=25 scenecut=40 intra_refresh=0 rc_lookahead=30 rc=abr mbtree=1 bitrate=2500 ratetol=1.0 qcomp=0.60 qpmin=0 qpmax=69 qpstep=4 ip_ratio=1.40 aq=1:1.00
Output #0, matroska, to 'Output/x264/encoded/crowd_run_2160p50fast2500k.mkv':
  Metadata:
    encoder         : Lavf57.57.100
    Stream #0:0: Video: h264 (libx264) (H264 / 0x34363248), yuv420p, 3840x2160 [SAR 1:1 DAR 16:9], q=-1--1, 2500 kb/s, 50 fps, 1k tbn, 50 tbc
    Metadata:
      encoder         : Lavc57.66.101 libx264
    Side data:
      cpb: bitrate max/min/avg: 0/0/2500000 buffer size: 0 vbv_delay: -1
Stream mapping:
  Stream #0:0 -> #0:0 (rawvideo (native) -> h264 (libx264))
Press [q] to stop, [?] for help
frame=   19 fps=0.0 q=0.0 size=       0kB time=00:00:00.00 bitrate=N/A speed=   0x    frame=   28 fps= 26 q=0.0 size=       0kB time=00:00:00.00 bitrate=N/A speed=   0x    frame=   36 fps= 22 q=0.0 size=       0kB time=00:00:00.00 bitrate=N/A speed=   0x    frame=   37 fps= 12 q=0.0 size=       0kB time=00:00:00.00 bitrate=N/A speed=   0x    frame=   44 fps= 12 q=47.0 size=       1kB time=00:00:00.02 bitrate= 279.6kbits/s speed=0.0058x    frame=   52 fps= 13 q=61.0 size=       1kB time=00:00:00.18 bitrate=  32.4kbits/s speed=0.0438x    frame=   57 fps= 12 q=64.0 size=       1kB time=00:00:00.28 bitrate=  20.9kbits/s speed=0.0606x    frame=   66 fps= 13 q=65.0 size=       1kB time=00:00:00.46 bitrate=  12.7kbits/s speed=0.089x    frame=   74 fps= 13 q=66.0 size=       1kB time=00:00:00.62 bitrate=   9.5kbits/s speed=0.109x    frame=   82 fps= 13 q=66.0 size=       1kB time=00:00:00.78 bitrate=   7.5kbits/s speed=0.126x    frame=   91 fps= 14 q=66.0 size=       1kB time=00:00:00.96 bitrate=   6.1kbits/s speed=0.143x    frame=  100 fps= 14 q=65.0 size=       1kB time=00:00:01.14 bitrate=   5.1kbits/s speed=0.158x    frame=  108 fps= 14 q=65.0 size=       1kB time=00:00:01.30 bitrate=   4.5kbits/s speed=0.168x    frame=  117 fps= 14 q=65.0 size=       1kB time=00:00:01.48 bitrate=   4.0kbits/s speed=0.179x    frame=  126 fps= 14 q=64.0 size=       1kB time=00:00:01.66 bitrate=   3.5kbits/s speed=0.186x    frame=  135 fps= 14 q=64.0 size=       1kB time=00:00:01.84 bitrate=   3.2kbits/s speed=0.195x    frame=  144 fps= 14 q=64.0 size=       1kB time=00:00:02.02 bitrate=   2.9kbits/s speed=0.203x    frame=  153 fps= 15 q=64.0 size=       1kB time=00:00:02.20 bitrate=   2.7kbits/s speed=0.21x    frame=  162 fps= 15 q=64.0 size=       1kB time=00:00:02.38 bitrate=   2.5kbits/s speed=0.214x    frame=  169 fps= 14 q=64.0 size=       1kB time=00:00:02.52 bitrate=   2.3kbits/s speed=0.215x    frame=  178 fps= 15 q=64.0 size=       1kB time=00:00:02.70 bitrate=   2.2kbits/s speed=0.221x    frame=  187 fps= 15 q=64.0 size=       1kB time=00:00:02.88 bitrate=   2.0kbits/s speed=0.226x    frame=  196 fps= 15 q=64.0 size=       1kB time=00:00:03.06 bitrate=   1.9kbits/s speed=0.231x    frame=  205 fps= 15 q=64.0 size=       1kB time=00:00:03.24 bitrate=   1.8kbits/s speed=0.235x    frame=  210 fps= 15 q=64.0 size=       1kB time=00:00:03.34 bitrate=   1.8kbits/s speed=0.232x    frame=  219 fps= 15 q=64.0 size=       1kB time=00:00:03.52 bitrate=   1.7kbits/s speed=0.236x    frame=  228 fps= 15 q=64.0 size=       1kB time=00:00:03.70 bitrate=   1.6kbits/s speed=0.24x    frame=  237 fps= 15 q=64.0 size=       1kB time=00:00:03.88 bitrate=   1.5kbits/s speed=0.243x    frame=  246 fps= 15 q=64.0 size=       1kB time=00:00:04.06 bitrate=   1.4kbits/s speed=0.245x    frame=  255 fps= 15 q=64.0 size=       1kB time=00:00:04.24 bitrate=   1.4kbits/s speed=0.248x    frame=  264 fps= 15 q=64.0 size=       1kB time=00:00:04.42 bitrate=   1.3kbits/s speed=0.251x    frame=  273 fps= 15 q=64.0 size=       1kB time=00:00:04.60 bitrate=   1.3kbits/s speed=0.253x    frame=  282 fps= 15 q=64.0 size=       1kB time=00:00:04.78 bitrate=   1.2kbits/s speed=0.254x    frame=  287 fps= 14 q=64.0 size=       1kB time=00:00:04.88 bitrate=   1.2kbits/s speed=0.246x    frame=  296 fps= 14 q=64.0 size=    1657kB time=00:00:05.06 bitrate=2681.7kbits/s speed=0.248x    frame=  305 fps= 15 q=64.0 size=    1657kB time=00:00:05.24 bitrate=2589.6kbits/s speed=0.25x    frame=  314 fps= 15 q=64.0 size=    1657kB time=00:00:05.42 bitrate=2503.6kbits/s speed=0.253x    frame=  323 fps= 15 q=64.0 size=    1657kB time=00:00:05.60 bitrate=2423.2kbits/s speed=0.255x    frame=  332 fps= 15 q=64.0 size=    1657kB time=00:00:05.78 bitrate=2347.7kbits/s speed=0.255x    frame=  339 fps= 15 q=64.0 size=    1657kB time=00:00:05.92 bitrate=2292.2kbits/s speed=0.254x    frame=  348 fps= 15 q=64.0 size=    1657kB time=00:00:06.10 bitrate=2224.6kbits/s speed=0.256x    frame=  354 fps= 14 q=64.0 size=    1657kB time=00:00:06.22 bitrate=2181.7kbits/s speed=0.254x    frame=  364 fps= 15 q=64.0 size=    1657kB time=00:00:06.42 bitrate=2113.7kbits/s speed=0.257x    frame=  372 fps= 15 q=64.0 size=    1657kB time=00:00:06.58 bitrate=2062.3kbits/s speed=0.258x    frame=  381 fps= 15 q=64.0 size=    1657kB time=00:00:06.76 bitrate=2007.4kbits/s speed=0.26x    frame=  390 fps= 15 q=64.0 size=    1657kB time=00:00:06.94 bitrate=1955.4kbits/s speed=0.261x    frame=  399 fps= 15 q=64.0 size=    1657kB time=00:00:07.12 bitrate=1905.9kbits/s speed=0.263x    frame=  408 fps= 15 q=64.0 size=    1657kB time=00:00:07.30 bitrate=1858.9kbits/s speed=0.263x    frame=  417 fps= 15 q=65.0 size=    1657kB time=00:00:07.48 bitrate=1814.2kbits/s speed=0.265x    frame=  426 fps= 15 q=65.0 size=    1657kB time=00:00:07.66 bitrate=1771.6kbits/s speed=0.266x    frame=  434 fps= 15 q=65.0 size=    1657kB time=00:00:07.82 bitrate=1735.3kbits/s speed=0.267x    frame=  442 fps= 15 q=65.0 size=    1657kB time=00:00:07.98 bitrate=1700.6kbits/s speed=0.267x    frame=  450 fps= 15 q=65.0 size=    1657kB time=00:00:08.14 bitrate=1667.1kbits/s speed=0.267x    frame=  457 fps= 15 q=65.0 size=    1657kB time=00:00:08.28 bitrate=1639.0kbits/s speed=0.267x    frame=  463 fps= 15 q=65.0 size=    1657kB time=00:00:08.40 bitrate=1615.5kbits/s speed=0.266x    frame=  472 fps= 15 q=65.0 size=    1657kB time=00:00:08.58 bitrate=1581.7kbits/s speed=0.267x    frame=  480 fps= 15 q=65.0 size=    1657kB time=00:00:08.74 bitrate=1552.7kbits/s speed=0.268x    frame=  489 fps= 15 q=65.0 size=    1657kB time=00:00:08.92 bitrate=1521.4kbits/s speed=0.269x    frame=  497 fps= 15 q=65.0 size=    1657kB time=00:00:09.08 bitrate=1494.6kbits/s speed=0.27x    frame=  500 fps= 14 q=-1.0 Lsize=    3303kB time=00:00:09.94 bitrate=2722.2kbits/s speed=0.28x    
video:3299kB audio:0kB subtitle:0kB other streams:0kB global headers:0kB muxing overhead: 0.128080%
bench: utime=112.956s
bench: maxrss=1589916kB
[libx264 @ 0x39ee1c0] frame I:2     Avg QP:46.40  size: 81071
[libx264 @ 0x39ee1c0] frame P:126   Avg QP:50.92  size: 11224
[libx264 @ 0x39ee1c0] frame B:372   Avg QP:50.95  size:  4842
[libx264 @ 0x39ee1c0] consecutive B-frames:  0.8%  0.0%  0.0% 99.2%
[libx264 @ 0x39ee1c0] mb I  I16..4: 42.0% 55.7%  2.3%
[libx264 @ 0x39ee1c0] mb P  I16..4: 12.6%  1.4%  0.0%  P16..4: 11.1%  0.6%  3.3%  0.0%  0.0%    skip:71.0%
[libx264 @ 0x39ee1c0] mb B  I16..4:  0.0%  0.0%  0.0%  B16..8:  8.3%  0.0%  0.0%  direct: 1.0%  skip:90.7%  L0:48.0% L1:52.0% BI: 0.1%
[libx264 @ 0x39ee1c0] final ratefactor: 56.35
[libx264 @ 0x39ee1c0] 8x8 transform intra:15.3% inter:98.4%
[libx264 @ 0x39ee1c0] coded y,uvDC,uvAC intra: 2.8% 10.5% 1.1% inter: 0.2% 0.7% 0.0%
[libx264 @ 0x39ee1c0] i16 v,h,dc,p: 78% 17%  4%  1%
[libx264 @ 0x39ee1c0] i8 v,h,dc,ddl,ddr,vr,hd,vl,hu: 12%  9% 59%  5%  3%  3%  3%  3%  3%
[libx264 @ 0x39ee1c0] i4 v,h,dc,ddl,ddr,vr,hd,vl,hu: 29% 19% 13%  9%  8%  7%  6%  5%  4%
[libx264 @ 0x39ee1c0] i8c dc,h,v,p: 99%  1%  1%  0%
[libx264 @ 0x39ee1c0] Weighted P-Frames: Y:1.6% UV:0.0%
[libx264 @ 0x39ee1c0] ref P L0: 53.8% 46.2%
[libx264 @ 0x39ee1c0] ref B L0: 75.9% 24.1%
[libx264 @ 0x39ee1c0] ref B L1: 89.5% 10.5%
[libx264 @ 0x39ee1c0] kb/s:2702.14
